<svg id="Layer_1" data-name="Layer 1" xmlns="http://www.w3.org/2000/svg" viewBox="0 0 762.91 114.22"><title>elephantbook_logo_white</title><path d="M150.38,81.11c0-15.88,11.36-25.66,23.36-25.66,12.7,0,20.51,8.21,20.51,22.53a19.46,19.46,0,0,1-.28,3.65H155.45c.17,12.29,8.09,21.08,20.17,21.08A25.81,25.81,0,0,0,190,98.39l2,3.4a31.32,31.32,0,0,1-16.89,4.79C161.47,106.58,150.38,97,150.38,81.11Zm39.22-3.17c0-12.43-6.2-18.62-15.81-18.62-9.06,0-17.25,7-18.37,18.62Z" transform="translate(-15.75 -14.88)" fill="#fff" stroke="#fff" stroke-miterlimit="10" stroke-width="1.31"/><path d="M208.77,98.83V32.41h4.93v67c0,2.17,1,3.19,2.32,3.19a8.93,8.93,0,0,0,2-.21l.82,3.65a11.83,11.83,0,0,1-3.54.51C211,106.58,208.77,104.17,208.77,98.83Z" transform="translate(-15.75 -14.88)" fill="#fff" stroke="#fff" stroke-miterlimit="10" stroke-width="1.31"/><path d="M230.7,81.11c0-15.88,11.36-25.66,23.36-25.66,12.7,0,20.51,8.21,20.51,22.53a19.46,19.46,0,0,1-.28,3.65H235.77c.17,12.29,8.1,21.08,20.17,21.08a25.81,25.81,0,0,0,14.39-4.32l2,3.4a31.32,31.32,0,0,1-16.89,4.79C241.79,106.58,230.7,97,230.7,81.11Zm39.23-3.17c0-12.43-6.21-18.62-15.82-18.62-9.06,0-17.25,7-18.37,18.62Z" transform="translate(-15.75 -14.88)" fill="#fff" stroke="#fff" stroke-miterlimit="10" stroke-width="1.31"/><path d="M289.09,56.67h4.17l.54,6.12H294c5.23-3.81,11.61-7.34,18.19-7.34,14.37,0,21.44,9.78,21.44,24.84,0,16.53-11,26.29-23.61,26.29-5.08,0-10.53-2.19-16.11-6l.07,9v17.83h-4.93Zm39.4,23.64c0-12-4.68-20.89-17-20.89-5.31,0-11,2.84-17.43,8V96.34c6.05,4.56,11.71,6.27,15.77,6.27C320.68,102.61,328.49,93.52,328.49,80.31Z" transform="translate(-15.75 -14.88)" fill="#fff" stroke="#fff" stroke-miterlimit="10" stroke-width="1.31"/><path d="M349.67,32.41h4.93V53.58l-.09,10.73c5.6-5.05,11.15-8.86,18.54-8.86,11.07,0,16.2,6.1,16.2,18.68v31.23h-4.93V74.72c0-10.33-3.6-15.24-12.21-15.24-6.38,0-11,3.07-17.51,9.15v36.73h-4.93Z" transform="translate(-15.75 -14.88)" fill="#fff" stroke="#fff" stroke-miterlimit="10" stroke-width="1.31"/><path d="M404.73,93.25c0-10.83,10.73-16,34.56-18.37.16-7.48-2.09-15.5-12.63-15.5-7.22,0-13.47,3.25-17.06,5.72l-2.28-3.32c3.79-2.44,11.22-6.33,19.92-6.33,12.7,0,17,8.38,17,18.8v31.11h-4.17L439.52,99h-.25c-5.47,4-12,7.54-19,7.54C411.78,106.58,404.73,102.38,404.73,93.25Zm34.56,1.61V78.29c-22,2.31-29.52,6.95-29.52,14.72,0,7,5.2,9.68,11.36,9.68S432.67,100,439.29,94.86Z" transform="translate(-15.75 -14.88)" fill="#fff" stroke="#fff" stroke-miterlimit="10" stroke-width="1.31"/><path d="M463.35,56.67h4.17l.53,7.54h.25c5.46-4.95,11-8.76,18.43-8.76,11.06,0,16.19,6.1,16.19,18.68v31.23H498V74.72c0-10.33-3.6-15.24-12.21-15.24-6.38,0-11,3.07-17.51,9.15v36.73h-4.93Z" transform="translate(-15.75 -14.88)" fill="#fff" stroke="#fff" stroke-miterlimit="10" stroke-width="1.31"/><path d="M523.94,91.92V60.58h-8.36V57.09l8.48-.42.62-14.1h4.19v14.1H544.4v3.91H528.87V92.25c0,6.22,1.72,10.42,9.11,10.42a20.7,20.7,0,0,0,6.71-1.55l1.3,3.63a33.24,33.24,0,0,1-8.75,1.83C527,106.58,523.94,100.64,523.94,91.92Z" transform="translate(-15.75 -14.88)" fill="#fff" stroke="#fff" stroke-miterlimit="10" stroke-width="1.31"/><path d="M562.41,100.43h-.25l-.55,4.93H557.5V32.41h4.93V53.58l-.24,9.5c5.41-4.16,11.92-7.63,18.44-7.63,14.36,0,21.45,9.78,21.45,24.83,0,16.54-11,26.3-23.61,26.3C573.36,106.58,567.45,104.17,562.41,100.43ZM596.9,80.31c0-12-4.68-20.89-17-20.89-5.31,0-11.16,2.84-17.43,8V96.34c5.85,4.56,11.71,6.27,15.78,6.27C589.09,102.61,596.9,93.52,596.9,80.31Z" transform="translate(-15.75 -14.88)" fill="#fff" stroke="#fff" stroke-miterlimit="10" stroke-width="1.31"/><path d="M613.46,81.11c0-16.29,11.18-25.66,24-25.66s24,9.37,24,25.66c0,16.1-11.18,25.47-24,25.47S613.46,97.21,613.46,81.11Zm42.92,0c0-12.82-8-21.71-18.87-21.71s-18.88,8.89-18.88,21.71,8.06,21.52,18.88,21.52S656.38,93.92,656.38,81.11Z" transform="translate(-15.75 -14.88)" fill="#fff" stroke="#fff" stroke-miterlimit="10" stroke-width="1.31"/><path d="M673.14,81.11c0-16.29,11.18-25.66,24.05-25.66s24,9.37,24,25.66c0,16.1-11.17,25.47-24,25.47S673.14,97.21,673.14,81.11Zm42.93,0c0-12.82-8.06-21.71-18.88-21.71s-18.87,8.89-18.87,21.71,8,21.52,18.87,21.52S716.07,93.92,716.07,81.11Z" transform="translate(-15.75 -14.88)" fill="#fff" stroke="#fff" stroke-miterlimit="10" stroke-width="1.31"/><path d="M737.22,32.41h4.88V86.18h.25l26.44-29.51h5.69L757,75.93l20.37,29.43h-5.49L754.13,79.28l-12,12.82v13.26h-4.88Z" transform="translate(-15.75 -14.88)" fill="#fff" stroke="#fff" stroke-miterlimit="10" stroke-width="1.31"/><path d="M80.61,126.83a22.18,22.18,0,0,1-4.29-5.51c-1.15-2.36-.66-4.5,1.85-5.52.88-.35,1.81-.56,2.69-.9a9.5,9.5,0,0,0,5.84-7.73c-.45.34-.89.7-1.33,1.07-.73.62-1.29,1.06-1.31,1.08-.86.71-10.09,6-25.39,2.79a37.56,37.56,0,0,1-9.11-2.81c-7-3.25-11-8-13.67-11.21s-8.7-10.7-10.07-22c-.11-.89-.16-1.56-.19-2A49.92,49.92,0,0,1,33,43.75c9.11-14.32,26.28-21.86,43-20.07a35.66,35.66,0,0,1,12.47,3.56c7.71,4,13.73,11.92,13.59,20.58A22.18,22.18,0,0,1,97.6,60.26a28.46,28.46,0,0,1-22.19,11.3,33.36,33.36,0,0,1-23.35-9.35,1.25,1.25,0,0,1-.44-.65,1.27,1.27,0,0,1,.4-.92l2.33-2.83a31.44,31.44,0,0,0,17.49,8c7.57.87,16-1.34,20.6-7.79A15.44,15.44,0,0,0,95,45.41c-1.51-6-6.92-10.36-12.76-12.36-14-4.8-30.21,2.84-37.52,15.3a33,33,0,0,0-4,22c1.14,6.78,4.47,13,11,15.91,5.57,2.43,12,1.8,17.87.05s11.3-4.52,17.09-6.38c8.52-2.74,18-3.41,26.56-.38,5.19,1.84,10.62,4.76,14.3,9A57.12,57.12,0,1,0,72.86,129.1a57.66,57.66,0,0,0,9.26-.75C81.61,127.85,81.11,127.34,80.61,126.83Z" transform="translate(-15.75 -14.88)" fill="#fff"/><path d="M82.5,93.57a10.78,10.78,0,0,1,10.39-2.94S84.9,84.62,82.5,93.57Z" transform="translate(-15.75 -14.88)" fill="#fff"/></svg>